<svg width="26" height="26" viewBox="0 0 26 26" fill="none" xmlns="http://www.w3.org/2000/svg">
<g clip-path="url(#clip0_136_41)">
<path d="M3.87488 7.37672C3.87488 6.81794 4.09686 6.28203 4.49198 5.88691C4.8871 5.49179 5.423 5.26981 5.98179 5.26981H20.7301C21.2889 5.26981 21.8248 5.49179 22.22 5.88691C22.6151 6.28203 22.8371 6.81794 22.8371 7.37672V17.9113C22.8371 18.4701 22.6151 19.006 22.22 19.4011C21.8248 19.7962 21.2889 20.0182 20.7301 20.0182H5.98179C5.423 20.0182 4.8871 19.7962 4.49198 19.4011C4.09686 19.006 3.87488 18.4701 3.87488 17.9113V7.37672Z" stroke="#00427A" stroke-width="1.58018" stroke-linecap="round" stroke-linejoin="round"/>
<path d="M3.87488 7.37672L13.356 13.6974L22.8371 7.37672" stroke="#00427A" stroke-width="1.58018" stroke-linecap="round" stroke-linejoin="round"/>
</g>
<defs>
<clipPath id="clip0_136_41">
<rect width="25.2829" height="25.2829" fill="white" transform="translate(0.7146 0.00252914)"/>
</clipPath>
</defs>
</svg>
