<?xml version="1.0" encoding="utf-8"?>
<!-- Generator: Adobe Illustrator 22.1.0, SVG Export Plug-In . SVG Version: 6.00 Build 0)  -->
<svg version="1.1" id="Layer_1" xmlns="http://www.w3.org/2000/svg" xmlns:xlink="http://www.w3.org/1999/xlink" x="0px" y="0px"
	 viewBox="0 0 1101.6 863.9" style="enable-background:new 0 0 1101.6 863.9;" xml:space="preserve">
<style type="text/css">
	.st0{fill:#3F3D56;}
	.st1{fill:#F1F1F1;}
	.st2{fill:#85A4AF;}
	.st3{fill:#91B3C2;}
	.st4{fill:#F2F2F2;}
	.st5{fill:#2F2E41;}
	.st6{fill:#FFB8B8;}
	.st7{fill:#D0CDE1;}
	.st8{opacity:0.1;enable-background:new    ;}
	.st9{fill:#576582;}
	.st10{fill:#FFFFFF;}
	.st11{display:none;}
</style>
<g id="ebbf72a9-6ef4-4f8b-8675-8eadd92ac77c">
	<title>ideas_flow</title>
	<path class="st0" d="M503.8,614.9v-1.8c3.7,0,7.4-0.1,11.1-0.2l0.1,1.8C511.3,614.8,507.5,614.9,503.8,614.9z M492.6,614.6
		c-3.7-0.2-7.4-0.4-11.1-0.7l0.2-1.8c3.7,0.3,7.4,0.5,11.1,0.7L492.6,614.6z M526.1,614.1l-0.1-1.8c3.7-0.3,7.4-0.6,11-1.1l0.2,1.8
		C533.5,613.4,529.8,613.8,526.1,614.1z M470.4,612.8c-3.7-0.5-7.4-1-11-1.6l0.3-1.8c3.6,0.6,7.3,1.1,11,1.6L470.4,612.8z
		 M548.3,611.5l-0.3-1.8c3.6-0.6,7.3-1.2,10.9-2l0.4,1.8C555.6,610.2,551.9,610.9,548.3,611.5L548.3,611.5z M448.4,609.2
		c-3.6-0.7-7.3-1.6-10.9-2.5l0.4-1.8c3.6,0.9,7.2,1.7,10.8,2.5L448.4,609.2z M570.1,607.1l-0.4-1.8c3.6-0.9,7.2-1.8,10.7-2.8
		l0.5,1.8C577.4,605.3,573.7,606.2,570.1,607.1L570.1,607.1z M426.7,603.8c-3.6-1-7.1-2.2-10.6-3.3l0.6-1.8c3.5,1.2,7,2.3,10.6,3.3
		L426.7,603.8z M591.6,601l-0.6-1.8c3.5-1.2,7-2.4,10.5-3.7l0.7,1.7C598.6,598.5,595.1,599.8,591.6,601L591.6,601z M405.6,596.7
		c-3.5-1.3-6.9-2.7-10.4-4.2l0.7-1.7c3.4,1.5,6.9,2.9,10.3,4.2L405.6,596.7z M612.4,593.1l-0.7-1.7c3.4-1.4,6.8-2.9,10.1-4.5
		l0.8,1.7C619.3,590.1,615.9,591.7,612.4,593.1L612.4,593.1z M385,587.9c-3.4-1.6-6.7-3.3-10-5l0.9-1.6c3.3,1.7,6.6,3.4,9.9,5
		L385,587.9z M632.6,583.6l-0.9-1.6c3.3-1.7,6.5-3.5,9.7-5.3l0.9,1.6C639.2,580.1,635.9,581.9,632.6,583.6L632.6,583.6z
		 M365.3,577.4c-3.2-1.9-6.4-3.8-9.5-5.8l1-1.6c3.1,2,6.3,3.9,9.5,5.8L365.3,577.4z M651.9,572.5l-1-1.6c3.1-2,6.2-4,9.3-6.1l1,1.5
		C658.2,568.5,655,570.6,651.9,572.5L651.9,572.5z M346.4,565.4c-3-2.1-6.1-4.3-9-6.6l1.1-1.5c2.9,2.2,5.9,4.4,9,6.5L346.4,565.4z
		 M670.3,559.9l-1.1-1.5c2.9-2.2,5.9-4.5,8.7-6.8l1.2,1.4C676.2,555.4,673.2,557.7,670.3,559.9L670.3,559.9z M328.6,551.9
		c-2.9-2.4-5.7-4.8-8.5-7.3l1.2-1.4c2.7,2.4,5.6,4.9,8.4,7.2L328.6,551.9z M687.6,545.9l-1.2-1.4c2.8-2.4,5.5-5,8.2-7.5l1.3,1.3
		C693.1,540.9,690.4,543.4,687.6,545.9L687.6,545.9z M312,537.1c-2.7-2.6-5.3-5.2-7.9-7.9l1.3-1.3c2.5,2.7,5.2,5.3,7.8,7.9
		L312,537.1z M703.7,530.5l-1.3-1.3c2.6-2.6,5.1-5.4,7.5-8.1l1.4,1.2C708.9,525,706.3,527.8,703.7,530.5L703.7,530.5z M296.6,520.9
		c-2.5-2.8-4.9-5.6-7.2-8.5l1.4-1.2c2.3,2.8,4.7,5.7,7.2,8.5L296.6,520.9z M718.6,513.8l-1.4-1.2c2.3-2.8,4.7-5.8,6.9-8.7l1.5,1.1
		C723.3,508,721,510.9,718.6,513.8L718.6,513.8z M282.5,503.6c-2.2-3-4.4-6-6.5-9.1l1.5-1c2.1,3,4.3,6.1,6.5,9L282.5,503.6z
		 M732.1,496l-1.5-1.1c2.1-3,4.2-6.1,6.2-9.2l1.6,1C736.3,489.8,734.2,493,732.1,496z M269.9,485.2c-2-3.1-3.9-6.3-5.7-9.5l1.6-0.9
		c1.8,3.2,3.8,6.4,5.7,9.5L269.9,485.2z M744.1,477.2l-1.6-0.9c1.9-3.2,3.7-6.5,5.4-9.7l1.6,0.9C747.8,470.7,746,474,744.1,477.2z
		 M258.8,465.9c-1.7-3.3-3.4-6.6-5-10l1.7-0.8c1.6,3.3,3.2,6.7,4.9,9.9L258.8,465.9z M754.6,457.4l-1.7-0.8
		c1.6-3.3,3.1-6.7,4.6-10.1l1.7,0.7C757.8,450.7,756.2,454.1,754.6,457.4z M249.3,445.8c-1.4-3.4-2.8-6.9-4.1-10.3l1.7-0.7
		c1.3,3.4,2.7,6.9,4.1,10.3L249.3,445.8z M763.4,436.9l-1.7-0.7c1.3-3.5,2.6-7,3.8-10.5l1.8,0.6C766,429.9,764.8,433.4,763.4,436.9
		L763.4,436.9z M241.4,424.9c-1.2-3.5-2.3-7.1-3.3-10.7l1.8-0.5c1,3.5,2.1,7.1,3.3,10.6L241.4,424.9z M770.6,415.7l-1.8-0.5
		c1-3.5,2-7.1,2.9-10.7l1.8,0.4C772.6,408.6,771.6,412.2,770.6,415.7z M235.3,403.5c-0.9-3.6-1.7-7.3-2.4-10.9l1.8-0.4
		c0.7,3.6,1.5,7.2,2.4,10.8L235.3,403.5z M776,394.1l-1.8-0.4c0.7-3.6,1.4-7.3,2-10.9l1.8,0.3C777.4,386.8,776.7,390.5,776,394.1
		L776,394.1z M230.9,381.6c-0.6-3.6-1.1-7.4-1.5-11.1l1.8-0.2c0.4,3.7,0.9,7.4,1.5,11L230.9,381.6z M779.6,372.1l-1.8-0.2
		c0.5-3.7,0.8-7.4,1.1-11l1.8,0.2C780.4,364.6,780,368.4,779.6,372.1L779.6,372.1z M228.2,359.5c-0.3-3.7-0.5-7.4-0.6-11.1l1.8-0.1
		c0.1,3.7,0.4,7.4,0.6,11.1L228.2,359.5z M781.4,349.8l-1.8-0.1c0.2-3.7,0.2-7.4,0.3-11.1V338h1.8v0.6
		C781.7,342.4,781.6,346.1,781.4,349.8z M229.3,337.2h-1.8v-0.3c0-3.6,0.1-7.3,0.2-10.8l1.8,0.1c-0.1,3.6-0.2,7.2-0.2,10.8V337.2z
		 M779.6,327c-0.1-3.7-0.4-7.4-0.6-11.1l1.8-0.1c0.3,3.7,0.5,7.4,0.7,11.1L779.6,327z M230.2,315l-1.8-0.2c0.3-3.7,0.7-7.4,1.1-11.1
		l1.8,0.2C230.9,307.6,230.5,311.3,230.2,315z M777.9,304.9c-0.4-3.6-0.9-7.3-1.5-11l1.8-0.3c0.6,3.7,1.1,7.4,1.5,11.1L777.9,304.9z
		 M232.9,293l-1.8-0.3c0.6-3.7,1.3-7.3,2-11l1.8,0.4C234.1,285.7,233.5,289.4,232.9,293z M774.4,283c-0.7-3.6-1.5-7.3-2.4-10.8
		l1.8-0.4c0.9,3.6,1.7,7.3,2.4,10.9L774.4,283z M237.3,271.3l-1.8-0.4c0.9-3.6,1.9-7.2,2.9-10.8l1.8,0.5
		C239.2,264.1,238.2,267.7,237.3,271.3z M769.1,261.5c-1-3.5-2.1-7.1-3.3-10.6l1.8-0.6c1.2,3.5,2.3,7.1,3.3,10.7L769.1,261.5z
		 M243.5,250l-1.8-0.6c1.2-3.5,2.5-7.1,3.8-10.5l1.7,0.7C246,243,244.7,246.5,243.5,250L243.5,250z M762.1,240.4
		c-1.3-3.4-2.7-6.9-4.1-10.3l1.7-0.7c1.4,3.4,2.8,6.9,4.1,10.3L762.1,240.4z M251.5,229.3l-1.7-0.7c1.5-3.4,3-6.8,4.6-10.2l1.7,0.8
		C254.5,222.5,252.9,225.9,251.5,229.3L251.5,229.3z M753.5,220.1c-1.6-3.3-3.2-6.6-4.9-9.9l1.6-0.9c1.7,3.3,3.4,6.6,5,10
		L753.5,220.1z M261,209.2l-1.6-0.9c1.7-3.3,3.6-6.6,5.4-9.8l1.6,0.9C264.6,202.7,262.8,206,261,209.2z M743.2,200.5
		c-1.8-3.2-3.8-6.4-5.7-9.5l1.6-1c2,3.1,3.9,6.3,5.8,9.5L743.2,200.5z M272.2,190l-1.6-1c2-3.1,4.1-6.3,6.2-9.3l1.5,1.1
		C276.2,183.8,274.2,186.9,272.2,190z M731.4,181.8c-2.1-3-4.3-6.1-6.5-9l1.5-1.1c2.2,3,4.4,6,6.5,9.1L731.4,181.8z M284.9,171.8
		l-1.5-1.1c2.2-3,4.6-5.9,6.9-8.8l1.4,1.2C289.4,166,287.1,168.9,284.9,171.8L284.9,171.8z M718.1,164c-2.3-2.9-4.7-5.7-7.2-8.4
		l1.4-1.2c2.5,2.8,4.9,5.6,7.2,8.5L718.1,164z M298.9,154.7l-1.4-1.2c2.5-2.8,5-5.5,7.6-8.2l1.3,1.3
		C303.9,149.2,301.4,152,298.9,154.7L298.9,154.7z M703.5,147.4c-2.5-2.7-5.2-5.3-7.8-7.9l1.3-1.3c2.7,2.6,5.3,5.2,7.9,7.9
		L703.5,147.4z M314.3,138.7l-1.3-1.3c2.7-2.6,5.4-5.1,8.2-7.5l1.2,1.4C319.7,133.7,317,136.2,314.3,138.7L314.3,138.7z M687.5,132
		c-2.8-2.4-5.6-4.9-8.4-7.2l1.2-1.4c2.9,2.3,5.7,4.8,8.5,7.3L687.5,132z M331,124.1l-1.2-1.4c2.9-2.3,5.8-4.6,8.8-6.9l1.1,1.5
		C336.7,119.5,333.8,121.8,331,124.1L331,124.1z M670.4,118c-2.9-2.2-6-4.4-9-6.5l1.1-1.5c3,2.1,6.1,4.3,9,6.6L670.4,118z
		 M348.7,110.8l-1-1.5c3.1-2.1,6.2-4.2,9.3-6.1l1,1.6C354.8,106.7,351.7,108.7,348.7,110.8z M652.1,105.3c-3.1-2-6.3-3.9-9.5-5.8
		l0.9-1.6c3.2,1.9,6.4,3.8,9.5,5.8L652.1,105.3z M367.4,99l-0.9-1.6c3.2-1.8,6.5-3.6,9.8-5.4l0.9,1.6
		C373.9,95.4,370.6,97.2,367.4,99L367.4,99z M632.9,94.2c-3.3-1.7-6.6-3.4-9.9-5l0.8-1.7c3.3,1.6,6.7,3.3,10,5L632.9,94.2z
		 M387,88.7l-0.8-1.7c3.3-1.6,6.8-3.1,10.2-4.6l0.7,1.7C393.7,85.7,390.3,87.2,387,88.7L387,88.7z M612.9,84.6
		c-3.4-1.5-6.9-2.9-10.3-4.2l0.7-1.7c3.5,1.3,7,2.7,10.4,4.2L612.9,84.6z M407.4,80.1l-0.7-1.7c3.5-1.3,7-2.6,10.5-3.7l0.6,1.8
		C414.3,77.6,410.8,78.8,407.4,80.1z M592.1,76.7c-3.5-1.2-7-2.3-10.6-3.3l0.5-1.8c3.6,1,7.1,2.2,10.6,3.3L592.1,76.7z M428.4,73.1
		l-0.5-1.8c3.6-1,7.2-2,10.8-2.9l0.4,1.8C435.5,71.2,431.9,72.1,428.4,73.1z M570.9,70.5c-3.6-0.9-7.2-1.7-10.8-2.4l0.4-1.8
		c3.6,0.7,7.3,1.6,10.9,2.5L570.9,70.5z M449.9,67.9l-0.4-1.8c3.6-0.7,7.3-1.4,11-2l0.3,1.8C457.2,66.5,453.5,67.2,449.9,67.9z
		 M549.1,66.1c-3.6-0.6-7.3-1.1-11-1.6l0.2-1.8c3.7,0.4,7.4,1,11,1.6L549.1,66.1z M471.8,64.4l-0.2-1.8c3.7-0.4,7.4-0.8,11.1-1.1
		l0.1,1.8C479.2,63.6,475.5,64,471.8,64.4z M527.1,63.4c-3.7-0.3-7.4-0.5-11.1-0.7l0.1-1.8c3.7,0.2,7.5,0.4,11.1,0.7L527.1,63.4z
		 M493.9,62.7l-0.1-1.8c3.7-0.1,7.4-0.2,11.2-0.2v1.8C501.3,62.5,497.6,62.5,493.9,62.7z"/>
	<polygon class="st1" points="1032.1,458.1 856,763.1 797.8,863.9 786.7,857.5 675.9,793.6 593.2,745.9 292.6,572.3 334.6,0 	"/>
	<path class="st0" d="M209.9,580.6c8.8-36.2,37.5-65.3,73.9-73.8c19.3-4.5,39.6-3.2,58.2,3.7c18.9,7.1,35.2,19.8,50.3,33
		c29.2,25.4,57.5,51.9,92.8,68.8c31.5,15.2,67,21.6,101.2,12.6c15.5-3.9,30-11.4,42.2-21.7c12.5-10.8,21.3-25,27.1-40.4
		c12.2-32.2,12-67.5,21.3-100.5c4.8-17,12.5-33,24.7-46c12.1-12.8,27.4-22.2,43.7-28.6c38.6-15.3,80.5-14,121.3-13.5
		c38.6,0.5,78.1-0.2,114.2-15.3c16.1-6.8,31.1-16.3,43-29.2c12.7-13.8,21.1-30.7,27.1-48.2c3.1-9.1,5.6-18.3,7.8-27.6
		c0.8-3.5-4.5-4.9-5.3-1.5c-4.6,19.3-10.4,38.6-20.5,55.8c-9.5,16-23,29.2-39.1,38.3c-34,19.6-74.2,22.5-112.6,22.4
		c-41.2-0.1-83.4-3.2-123.4,8.8c-32.6,9.7-62.6,29.2-77.6,60.5c-15,31.2-15.5,66.7-23,99.9c-3.7,16.5-9.3,32.8-19.2,46.7
		c-9.9,13.8-24.1,24.2-39.9,30.5c-33.6,13.5-71.2,9.5-103.8-4.8c-36.6-16-65.9-42.7-95.6-68.8c-14.3-12.6-29.3-24.8-46.6-32.9
		c-52.5-24.9-115.3-2.5-140.2,50.1c-3.1,6.5-5.5,13.3-7.2,20.3C203.7,582.6,209,584,209.9,580.6L209.9,580.6z"/>
	<path class="st2" d="M602.4,716.5h-92.8c-6.3-36.6-6.3-74.1,0-110.7h92.8C592,642,592,680.3,602.4,716.5z"/>
	<path class="st3" d="M255.2,605.6H348c6.3-36.6,6.3-74.1,0-110.7h-92.8C265.7,531.1,265.7,569.5,255.2,605.6z"/>
	<path class="st4" d="M274.9,541.5c6.3-2.5,13.4-1.9,19.2,1.4c4.9,2.7,9.3,6.1,15,6.9c4.6,0.7,9.4,0,13.6-2.1
		c5.4-2.6,8.7-7.7,13.4-11.4c2.6-2-1.1-5.7-3.6-3.6c-4.5,3.6-7.7,8.7-13.3,10.9c-5.9,2.3-11.6,1.1-17-1.9c-4.3-2.5-8.3-5.3-13.3-6.4
		c-5.1-1.1-10.5-0.7-15.4,1.2C270.4,537.7,271.8,542.6,274.9,541.5L274.9,541.5z"/>
	<path class="st4" d="M274.9,566.3c6.3-2.5,13.4-1.9,19.2,1.4c4.9,2.7,9.3,6.1,15,6.9c4.6,0.7,9.4,0,13.6-2.1
		c5.4-2.6,8.7-7.7,13.4-11.4c2.6-2-1.1-5.7-3.6-3.6c-4.5,3.6-7.7,8.7-13.3,10.9c-5.9,2.3-11.6,1.1-17-1.9c-4.3-2.5-8.3-5.3-13.3-6.4
		c-5.1-1.1-10.5-0.7-15.4,1.2C270.4,562.5,271.8,567.5,274.9,566.3L274.9,566.3z"/>
	<path class="st4" d="M577.1,638.3c-6.3-2.5-13.4-1.9-19.2,1.4c-4.9,2.7-9.3,6.1-15,6.9c-4.6,0.7-9.4,0-13.6-2.1
		c-5.4-2.6-8.7-7.7-13.4-11.4c-2.6-2,1.1-5.7,3.6-3.6c4.5,3.6,7.7,8.7,13.3,10.9c5.9,2.3,11.6,1.1,17-1.9c4.3-2.5,8.3-5.3,13.3-6.4
		c5.1-1.1,10.5-0.7,15.4,1.2C581.6,634.5,580.2,639.5,577.1,638.3L577.1,638.3z"/>
	<path class="st4" d="M577.1,662.3c-6.3-2.5-13.4-1.9-19.2,1.4c-4.9,2.7-9.3,6.1-15,6.9c-4.6,0.7-9.4,0-13.6-2.1
		c-5.4-2.6-8.7-7.7-13.4-11.4c-2.6-2,1.1-5.7,3.6-3.6c4.5,3.6,7.7,8.7,13.3,10.9c5.9,2.3,11.6,1.1,17-1.9c4.3-2.5,8.3-5.3,13.3-6.4
		c5.1-1.1,10.5-0.7,15.4,1.2C581.6,658.5,580.2,663.5,577.1,662.3L577.1,662.3z"/>
	<path class="st4" d="M577.1,686.3c-6.3-2.5-13.4-1.9-19.2,1.4c-4.9,2.7-9.3,6.1-15,6.9c-4.6,0.7-9.4,0-13.6-2.1
		c-5.4-2.6-8.7-7.7-13.4-11.4c-2.6-2,1.1-5.7,3.6-3.6c4.5,3.6,7.7,8.7,13.3,10.9c5.9,2.3,11.6,1.1,17-1.9c4.3-2.5,8.3-5.3,13.3-6.4
		c5.1-1.1,10.5-0.7,15.4,1.2C581.6,682.5,580.2,687.5,577.1,686.3L577.1,686.3z"/>
	<path class="st5" d="M760.1,208c-19.9-33.6-59.2-35.1-59.2-35.1s-38.3-4.9-62.9,46.2c-22.9,47.6-54.5,93.7-5.1,104.8l8.9-27.8
		l5.5,29.8c7,0.5,14.1,0.6,21.1,0.4c52.9-1.7,103.3,0.5,101.7-18.5C768.1,282.6,779.3,240.3,760.1,208z"/>
	<path class="st6" d="M624.5,526.7l-67,46.5c0,0-39.1,40.9-11.2,40.9s39.1-35.4,39.1-35.4l85.6-37.2L624.5,526.7z"/>
	<path class="st7" d="M651.5,345.3c0,0-58.6,181.4-40,190.7s59.6,14.9,59.6,14.9L651.5,345.3z"/>
	<path class="st8" d="M651.5,345.3c0,0-58.6,181.4-40,190.7s59.6,14.9,59.6,14.9L651.5,345.3z"/>
	<path class="st5" d="M856,763.1l-58.2,100.8l-11.1-6.4c-21.2-81.3-46.8-178.2-46.8-178.2l-64,114.3l-82.7-47.7
		C613,703.2,646.9,603,646.9,603l150.7-76.3c0,0,48.4,29.8,50.2,102.4s1.9,115.4,1.9,115.4S852.2,751.5,856,763.1z"/>
	<circle class="st6" cx="688.7" cy="250.4" r="48.4"/>
	<path class="st6" d="M687.8,290.4c0,0,11.2,35.4,0,48.4s61.4-18.6,61.4-18.6s-26.1-37.2-18.6-54L687.8,290.4z"/>
	<path class="st7" d="M756.6,298.1c-1.4,2.2-2.9,4.3-4.6,6.2c-1.9,1.9-13,3.7-14.9,7.4s-29.3,9-29.3,9l-9.8,4
		c0,0-46.5,11.2-46.5,20.5s-3.7,37.2-3.7,37.2s-14.9,16.7-5.6,57.7c3.6,15.8,8.6,46.4,5.8,78.8c-4.5,51.7-17.6,107.6-3.9,111
		c22.3,5.6,85.6,7.4,106.1-20.5s22.3-52.1,44.7-54s-3.7-78.2-3.7-78.2L819,295C819,295,772.4,278.8,756.6,298.1z"/>
	<path class="st3" d="M700.4,588.7h92.8c6.3-36.6,6.3-74.1,0-110.7h-92.8C710.9,514.2,710.9,552.6,700.4,588.7z"/>
	<path class="st4" d="M719.7,515.8c6.3-2.5,13.4-1.9,19.2,1.4c4.9,2.7,9.3,6.1,15,6.9c4.6,0.7,9.4,0,13.6-2.1
		c5.4-2.6,8.7-7.7,13.4-11.4c2.6-2-1.1-5.7-3.6-3.6c-4.5,3.6-7.7,8.7-13.3,10.9c-5.9,2.3-11.6,1.1-17-1.9c-4.3-2.5-8.3-5.3-13.3-6.4
		c-5.1-1.1-10.5-0.7-15.4,1.2C715.3,512,716.6,516.9,719.7,515.8L719.7,515.8z"/>
	<path class="st4" d="M719.7,539.8c6.3-2.5,13.4-1.9,19.2,1.4c4.9,2.7,9.3,6.1,15,6.9c4.6,0.7,9.4,0,13.6-2.1
		c5.4-2.6,8.7-7.7,13.4-11.4c2.6-2-1.1-5.7-3.6-3.6c-4.5,3.6-7.7,8.7-13.3,10.9c-5.9,2.3-11.6,1.1-17-1.9c-4.3-2.5-8.3-5.3-13.3-6.4
		c-5.1-1.1-10.5-0.7-15.4,1.2C715.3,536,716.6,540.9,719.7,539.8L719.7,539.8z"/>
	<path class="st6" d="M853.4,411.3l-67,46.5c0,0-39.1,40.9-11.2,40.9s39.1-35.4,39.1-35.4l85.6-37.2L853.4,411.3z"/>
	<path class="st5" d="M738.3,204.8l-38.8-20.3l-24.4,3.8c-17.7,2.7-31.9,16-35.8,33.4l-4.6,20.1l27.6-1.1l7.7-18v17.7l12.7-0.5
		l7.4-28.7l4.6,30.5l45.3-0.9L738.3,204.8z"/>
	<path class="st7" d="M806,298.8l13-3.7c0,0,132.1,54,128.4,100.5s1.9,46.5-20.5,48.4s-87.5-20.5-85.6-24.2s14.9-22.3,14.9-22.3
		L806,358.3V298.8z"/>
	<circle class="st6" cx="737.1" cy="250.4" r="7.4"/>
	<path class="st0" d="M810.3,374.6c48.6-2.6,97.8,4.3,145.6-7.5c3.5-0.9,2-6.2-1.5-5.3c-47.3,11.6-96.1,4.7-144.1,7.3
		C806.7,369.3,806.7,374.8,810.3,374.6L810.3,374.6z"/>
	<path class="st2" d="M1024.6,455.4l77-51.8c-15.2-33.9-36.1-65-61.8-91.8l-77,51.8C991.7,387.7,1013.1,419.6,1024.6,455.4z"/>
	<path class="st4" d="M1005.2,391.2c3.8-5.6,10-9.1,16.8-9.5c5.6-0.5,11.1-0.2,16.3-2.6c4.2-2,7.8-5.2,10.1-9.3
		c3-5.2,2.9-11.3,4.7-16.9c1-3.1-4-4.1-5-1c-1.8,5.5-1.5,11.6-4.9,16.5c-3.6,5.2-9,7.4-15.2,7.9c-5,0.3-9.9,0.2-14.6,2.1
		c-4.9,1.9-9.1,5.3-12.1,9.5C999.4,390.6,1003.2,393.9,1005.2,391.2L1005.2,391.2z"/>
	<path class="st4" d="M1019,411.9c3.8-5.6,10-9.1,16.8-9.5c5.6-0.5,11.1-0.2,16.3-2.6c4.2-2,7.8-5.2,10.1-9.3
		c3-5.2,2.9-11.3,4.7-16.9c1-3.1-4-4.1-5-1c-1.8,5.5-1.5,11.6-4.9,16.5c-3.6,5.2-9,7.4-15.2,7.9c-5,0.3-9.9,0.2-14.6,2.1
		c-4.9,1.9-9.1,5.3-12.1,9.5C1013.2,411.2,1017.1,414.6,1019,411.9L1019,411.9z"/>
	
		<rect x="144.8" y="-93.3" transform="matrix(3.270183e-03 -1 1 3.270183e-03 92.8673 295.9073)" class="st9" width="100.2" height="389.3"/>
	<circle class="st3" cx="46.7" cy="100.7" r="27.3"/>
	
		<rect x="156.4" y="25.7" transform="matrix(3.270183e-03 -1 1 3.270183e-03 77.7816 242.1597)" class="st10" width="8" height="112.8"/>
	
		<rect x="224.2" y="-22.7" transform="matrix(3.270183e-03 -1 1 3.270183e-03 125.8671 329.4977)" class="st10" width="8" height="248.7"/>
	
		<rect x="224.2" y="-3.6" transform="matrix(3.270183e-03 -1 1 3.270183e-03 106.6916 348.6084)" class="st10" width="8" height="248.7"/>
	
		<rect x="144.8" y="173.7" transform="matrix(3.270183e-03 -1 1 3.270183e-03 -174.1298 562.0385)" class="st9" width="100.2" height="389.3"/>
	<circle class="st3" cx="46.7" cy="367.7" r="27.3"/>
	
		<rect x="156.4" y="292.7" transform="matrix(3.270183e-03 -1 1 3.270183e-03 -189.2154 508.2908)" class="st10" width="8" height="112.8"/>
	
		<rect x="224.2" y="244.3" transform="matrix(3.270183e-03 -1 1 3.270183e-03 -141.1299 595.6288)" class="st10" width="8" height="248.7"/>
	
		<rect x="224.2" y="263.4" transform="matrix(3.270183e-03 -1 1 3.270183e-03 -160.3052 614.7397)" class="st10" width="8" height="248.7"/>
	
		<rect x="93.8" y="184.8" transform="matrix(1 -3.270056e-03 3.270056e-03 1 -0.7666 0.9445)" class="st9" width="389.3" height="100.2"/>
	<circle class="st3" cx="436.6" cy="234.3" r="27.3"/>
	
		<rect x="266.5" y="211.7" transform="matrix(1 -3.270056e-03 3.270056e-03 1 -0.7036 1.0571)" class="st10" width="112.8" height="8"/>
	
		<rect x="130.7" y="231.1" transform="matrix(1 -3.270056e-03 3.270056e-03 1 -0.7674 0.8353)" class="st10" width="248.7" height="8"/>
	
		<rect x="130.8" y="250.4" transform="matrix(1 -3.270056e-03 3.270056e-03 1 -0.8305 0.8357)" class="st10" width="248.7" height="8"/>
</g>
<g id="Layer_2_1_" class="st11">
</g>
</svg>
