<svg width="23" height="23" viewBox="0 0 23 23" fill="none" xmlns="http://www.w3.org/2000/svg">
<path d="M18.8146 4.12149C20.8142 6.12111 22.0521 8.73967 22.0521 11.5963C22.0521 17.4047 17.1959 22.1657 11.3398 22.1657C9.57825 22.1657 7.86428 21.6896 6.29315 20.8802L0.722778 22.3085L2.19869 16.8334C1.2941 15.2622 0.770388 13.4531 0.770388 11.5487C0.770388 5.74023 5.53139 0.979229 11.3398 0.979229C14.1964 0.979229 16.8626 2.12187 18.8146 4.12149ZM11.3398 20.3565C16.196 20.3565 20.2429 16.4049 20.2429 11.5963C20.2429 9.21577 19.2431 7.0257 17.5767 5.35935C15.9104 3.693 13.7203 2.78841 11.3874 2.78841C6.5312 2.78841 2.57957 6.74004 2.57957 11.5487C2.57957 13.215 3.05567 14.8338 3.91265 16.2621L4.1507 16.5953L3.24611 19.8328L6.57881 18.9282L6.86447 19.1187C8.24517 19.928 9.76869 20.3565 11.3398 20.3565ZM16.196 13.7863C16.4341 13.9292 16.6245 13.9768 16.6721 14.1196C16.7674 14.2148 16.7674 14.7385 16.5293 15.3575C16.2913 15.9764 15.2438 16.5477 14.7677 16.5953C13.9108 16.7382 13.2442 16.6905 11.5779 15.9288C8.91171 14.7861 7.19774 12.12 7.05491 11.9771C6.91208 11.7867 6.00749 10.5488 6.00749 9.21577C6.00749 7.93029 6.67403 7.31136 6.91208 7.0257C7.15013 6.74004 7.43579 6.69243 7.62623 6.69243C7.76906 6.69243 7.9595 6.69243 8.10233 6.69243C8.29278 6.69243 8.48322 6.64482 8.72127 7.16853C8.91171 7.69224 9.48303 8.97772 9.53064 9.12055C9.57825 9.26338 9.62586 9.40621 9.53064 9.59665C9.05454 10.5965 8.48321 10.5488 8.76888 11.0249C9.8163 12.7865 10.8161 13.4054 12.3872 14.1672C12.6253 14.31 12.7681 14.2624 12.9586 14.1196C13.1014 13.9292 13.6251 13.3102 13.7679 13.0722C13.9584 12.7865 14.1488 12.8341 14.3869 12.9293C14.6249 13.0246 15.9104 13.6435 16.196 13.7863Z" fill="#00427A"/>
</svg>
