<svg id="Layer_4" data-name="Layer 4" xmlns="http://www.w3.org/2000/svg" viewBox="0 0 921.52 249.01"><defs><style>.cls-1{fill:#235c76;}</style></defs><title>logo-new-svara-apps</title><path class="cls-1" d="M8538.41,1000.56a113.5,113.5,0,0,0-17.12-6.36c-7.64-2.42-13.55-5.09-17.57-7.92-3.6-2.53-5.35-6.09-5.35-10.9a12.48,12.48,0,0,1,5.64-10.83c4-2.83,9.32-4.26,15.82-4.26a30.94,30.94,0,0,1,12.62,2.69,26.55,26.55,0,0,1,9.7,7,5.76,5.76,0,0,0,4.17,1.73,6.93,6.93,0,0,0,4.86-2,6.44,6.44,0,0,0,2.2-4.73c0-1.78-.91-3.68-2.74-5.76a32.18,32.18,0,0,0-13.37-9.17,48.45,48.45,0,0,0-17.44-3.13,43.57,43.57,0,0,0-18.16,3.62,30.21,30.21,0,0,0-12.56,10.16,25.73,25.73,0,0,0-4.56,15c0,6.18,1.46,11.39,4.35,15.51a31,31,0,0,0,11.05,9.65,88.35,88.35,0,0,0,15.95,6.24,115.76,115.76,0,0,1,13.75,5.24,23.25,23.25,0,0,1,8.07,6.08,13.33,13.33,0,0,1,2.85,8.81c0,4.52-1.92,8.09-5.87,10.91-4.14,3-9.48,4.47-15.88,4.47a34,34,0,0,1-26.51-11.74,6.65,6.65,0,0,0-9.77,0,7,7,0,0,0-2,4.86A6.67,6.67,0,0,0,8483,1041a54.44,54.44,0,0,0,16.3,11.35,48.84,48.84,0,0,0,19.42,3.67,43.76,43.76,0,0,0,18.3-3.69,31.46,31.46,0,0,0,12.84-10.28,25.1,25.1,0,0,0,4.72-14.8c0-6.85-1.54-12.5-4.57-16.81A30.19,30.19,0,0,0,8538.41,1000.56Z" transform="translate(-8177.04 -871.18)"/><path class="cls-1" d="M8694.18,950.09a6.61,6.61,0,0,0-8.52-.62,9,9,0,0,0-2.5,2.87L8651,1030.85l-32.61-77.95a6.9,6.9,0,0,0-6.59-4.7,6.64,6.64,0,0,0-4.51,1.78,6.32,6.32,0,0,0-2.12,4.85,7.36,7.36,0,0,0,.63,3.25l38.52,92.24a6.92,6.92,0,0,0,2.54,3.07,6.6,6.6,0,0,0,3.73,1.13,6.67,6.67,0,0,0,3.83-1.22,7.28,7.28,0,0,0,2.6-3.16l38.69-92.43a8.66,8.66,0,0,0,.59-3,6.21,6.21,0,0,0-2.07-4.58Z" transform="translate(-8177.04 -871.18)"/><path class="cls-1" d="M8958.27,1042.19a6,6,0,0,1-2.45-3.67c-.46-1.51-1-4.81-1.13-11.94a27.81,27.81,0,0,0-4.63-15.59,25.3,25.3,0,0,0-6.83-6.78,27.43,27.43,0,0,0,9.07-8.42,30.36,30.36,0,0,0,5.28-17.66,29.46,29.46,0,0,0-4-15.28,28.75,28.75,0,0,0-11.13-10.66,32.88,32.88,0,0,0-15.92-3.84h-39.09a6.63,6.63,0,0,0-6.76,6.77v92.64a6.33,6.33,0,0,0,2.3,5,7.61,7.61,0,0,0,5,1.8,6.42,6.42,0,0,0,4.81-2,6.82,6.82,0,0,0,1.82-4.77v-36.51h29.7a19.69,19.69,0,0,1,12,3.65c3.08,2.26,4.65,6.39,4.65,12.3,0,8.07.88,13.85,2.69,17.68a18.75,18.75,0,0,0,7.5,8.6,7.33,7.33,0,0,0,7,0,6.73,6.73,0,0,0,2.56-2.62,6.24,6.24,0,0,0-2.53-8.67Zm-17.13-53.61a18.56,18.56,0,0,1-6.15,6.93,17.39,17.39,0,0,1-8.17,2.92h-32.2V961.74h31.15c5.38,0,9.58,1.55,12.86,4.74a15.85,15.85,0,0,1,4.84,11.94A21.42,21.42,0,0,1,8941.14,988.58Z" transform="translate(-8177.04 -871.18)"/><path class="cls-1" d="M8790.49,952.4a7,7,0,0,0-2.54-3.06,6.67,6.67,0,0,0-7.57.09,7.35,7.35,0,0,0-2.6,3.16L8739.1,1045a8.66,8.66,0,0,0-.59,3,6.2,6.2,0,0,0,2.06,4.58,6.63,6.63,0,0,0,8.53.63,8.81,8.81,0,0,0,2.49-2.87l32.21-78.51,32.62,77.95a6.89,6.89,0,0,0,6.59,4.69,6.63,6.63,0,0,0,4.51-1.77,6.31,6.31,0,0,0,2.11-4.85,7.34,7.34,0,0,0-.62-3.25Z" transform="translate(-8177.04 -871.18)"/><path class="cls-1" d="M9097.94,1044.65l-38.52-92.25a7,7,0,0,0-2.53-3.06,6.69,6.69,0,0,0-7.58.09,7.35,7.35,0,0,0-2.6,3.16L9008,1045a8.61,8.61,0,0,0-.59,3,6.21,6.21,0,0,0,2.07,4.58h0a6.6,6.6,0,0,0,8.52.63,9,9,0,0,0,2.5-2.87l32.2-78.51,32.62,77.95a6.89,6.89,0,0,0,6.59,4.69,6.63,6.63,0,0,0,4.51-1.77,6.31,6.31,0,0,0,2.11-4.85A7.34,7.34,0,0,0,9097.94,1044.65Z" transform="translate(-8177.04 -871.18)"/><path class="cls-1" d="M8188.68,1001.44c-.1-1.91-.15-3.82-.15-5.75s.05-3.84.15-5.74a113.16,113.16,0,0,1,112.87-107.28c55.42,0,101.57,40.15,111.12,92.86a.17.17,0,0,0,.18.15h11.31a.2.2,0,0,0,.19-.22c-9.7-59.06-61-104.28-122.8-104.28A124.65,124.65,0,0,0,8177,995.69c0,1.93.06,3.84.15,5.75h11.49Z" transform="translate(-8177.04 -871.18)"/><path class="cls-1" d="M8425.91,990h-11.49c.09,1.9.14,3.81.14,5.74s0,3.84-.14,5.75a113.17,113.17,0,0,1-106,107,.19.19,0,0,1-.21-.19v-22.76a.19.19,0,0,1,.17-.18,90,90,0,0,0,82.87-83.91c.12-1.91.29-3.81.29-5.75s-.15-3.84-.29-5.74h-49.52a.2.2,0,0,1-.19-.19v-9.22c0-20.89-15.72-39.24-36.57-40.55a39.12,39.12,0,0,0-41.58,39v10.77a.19.19,0,0,1-.18.19H8225a.19.19,0,0,1-.19-.21,76.88,76.88,0,0,1,150.89-14.19.19.19,0,0,0,.18.13H8389a.19.19,0,0,0,.19-.23A89.91,89.91,0,0,0,8211.83,990c-.12,1.91-.29,3.8-.29,5.74s.15,3.84.29,5.75h51.4a.18.18,0,0,1,.18.18v10.55a39.1,39.1,0,0,0,33.18,38.58.17.17,0,0,1,.15.18v21.35a.2.2,0,0,1-.2.2,77.08,77.08,0,0,1-69.21-56.65.17.17,0,0,0-.17-.13H8214.1a.2.2,0,0,0-.19.23,90.08,90.08,0,0,0,82.66,69.55.18.18,0,0,1,.17.18v22.63a.19.19,0,0,1-.2.19,113.1,113.1,0,0,1-106.12-92.63.17.17,0,0,0-.18-.15H8179a.19.19,0,0,0-.19.22c9.46,57.51,58.34,101.89,117.93,104.17,1.6.06,3.2.11,4.81.11l.94,0c1.92,0,3.84-.05,5.74-.16a124.65,124.65,0,0,0,117.82-124.32C8426.05,993.76,8426,991.85,8425.91,990Zm-47.67,11.7a77,77,0,0,1-69.79,70.69.2.2,0,0,1-.22-.2v-21.21a.18.18,0,0,1,.16-.18,39.09,39.09,0,0,0,33.17-38.58v-10.55a.19.19,0,0,1,.19-.18h36.3A.19.19,0,0,1,8378.24,1001.65ZM8274.9,979A27.62,27.62,0,0,1,8306,951.62c14,1.72,24.11,14.38,24.11,28.49v9.65a.19.19,0,0,1-.18.19h-54.8a.2.2,0,0,1-.19-.19Zm0,32.06v-9.43a.19.19,0,0,1,.19-.18h54.8a.18.18,0,0,1,.18.18v10.55a27.62,27.62,0,0,1-31.06,27.37C8285,1037.82,8274.9,1025.16,8274.9,1011.05Z" transform="translate(-8177.04 -871.18)"/></svg>