<svg id="a63c3c50-d1e6-43da-a966-9216c85539b1" xmlns="http://www.w3.org/2000/svg" viewBox="0 0 1014.53 597.44"><defs><style>.cls-1{fill:#605d82;}.cls-2{fill:#f2f2f2;}.cls-10,.cls-3{fill:none;}.cls-3{stroke:#3f3d56;stroke-miterlimit:10;}.cls-4{fill:#f86b75;}.cls-5{fill:#fad375;}.cls-6{fill:#8bcc55;}.cls-7{fill:#00bfa6;}.cls-8{fill:#fff;}.cls-9{fill:#46455b;}.cls-11{opacity:0.1;}.cls-11,.cls-14{isolation:isolate;}.cls-12{fill:#fbbebe;}.cls-13{fill:#a8a8a8;}.cls-14{opacity:0.2;}</style></defs><title>undraw_media_player_ylg8</title><path class="cls-1" d="M411,596h-6a5,5,0,0,1-5-5V574h11l4.42,16.21a4.58,4.58,0,0,1-3.21,5.63A4.52,4.52,0,0,1,411,596Z"/><rect class="cls-2" x="79.5" y="187.5" width="710" height="270" rx="13.22" ry="13.22"/><rect class="cls-3" x="2.5" y="0.5" width="962" height="523" rx="13.64" ry="13.64"/><line class="cls-3" y1="37.04" x2="962" y2="37.04"/><line class="cls-3" y1="100.5" x2="962" y2="100.5"/><circle class="cls-4" cx="24.5" cy="22.5" r="10"/><circle class="cls-5" cx="55.5" cy="22.5" r="10"/><circle class="cls-6" cx="86.5" cy="22.5" r="10"/><circle class="cls-3" cx="27.5" cy="18.5" r="10"/><circle class="cls-3" cx="58.5" cy="18.5" r="10"/><circle class="cls-3" cx="89.5" cy="18.5" r="10"/><circle class="cls-2" cx="225" cy="74" r="20"/><circle class="cls-3" cx="230" cy="69" r="20"/><rect class="cls-7" x="505" y="63.5" width="99" height="27" rx="5.42" ry="5.42"/><rect class="cls-7" x="646" y="63.5" width="99" height="27" rx="5.42" ry="5.42"/><rect class="cls-3" x="512" y="55.5" width="99" height="27" rx="4.22" ry="4.22"/><rect class="cls-3" x="653" y="55.5" width="99" height="27" rx="4.22" ry="4.22"/><rect class="cls-3" x="115.5" y="165.5" width="710" height="270" rx="16" ry="16"/><path class="cls-3" d="M451.9,365.09A68.2,68.2,0,1,0,373.38,254.9m32.62,31V274.31L446.92,305l-9.42,6.5"/><path class="cls-7" d="M409.64,243.8a68.2,68.2,0,1,0,68.2,68.2h0A68.23,68.23,0,0,0,409.64,243.8Zm5.25,51.68L396,281.31,436.92,312Z"/><path class="cls-8" d="M411.56,269a36.42,36.42,0,0,1-2.09,7.52,67,67,0,0,1-3.86,8.64,61,61,0,0,1-7,10.38c-3.27,3.92-3.4,3.33-6,6.83a52.64,52.64,0,0,0-5.54,7.93c-1.9,3.35-3.27,6.32-3.57,8.74-.42,3.51,1.08,4.11,2,4.31a23.25,23.25,0,0,1,2.91-6.14c2.86-4.36,5.57-7,11-12.23,4.14-4,7.51-7.24,12.84-10.59a44.39,44.39,0,0,1,9.78-4.78,41.57,41.57,0,0,1,7.08-1.67,11.74,11.74,0,0,0-.06-2.54,6.74,6.74,0,0,0-1-3.19,5.61,5.61,0,0,0-1.44-1.43,8.44,8.44,0,0,0-.56-3.47,8.6,8.6,0,0,0-7.45-5.47,7.69,7.69,0,0,0-1.85-2,5.14,5.14,0,0,0-2.35-1.06A23.15,23.15,0,0,0,411.56,269Z"/><path class="cls-8" d="M386.36,320.88a3.59,3.59,0,0,0-.29.59,5.63,5.63,0,0,0-.32,1.06c-.05.2-.11.48-.16.82a2.12,2.12,0,0,0,.3.18,2,2,0,0,0,1,.14,7.23,7.23,0,0,0,1.2-.14c.92-.2,1.38-.3,1.86-.44a30.42,30.42,0,0,0,4.92-2.24c.89-.5,1.34-.79,3.24-1.85l.94-.52a46.14,46.14,0,0,1,7.85-3.09c2.07-.63,3.68-1,4.25-1.15,1.45-.33,3.42-.63,7.35-1.23a11.47,11.47,0,0,1,2.83-.18s.2,0,1.84.19l.37.11a13,13,0,0,0,1-1.89,12.2,12.2,0,0,0,.5-1.36,7.86,7.86,0,0,0,.32-1.62,3.92,3.92,0,0,0-.1-1.55,3.41,3.41,0,0,0-.72-1.28,3.68,3.68,0,0,0-2-1.1,4.11,4.11,0,0,0-1.23-.1c-.53,0-1.19,0-1.94.06-1.08.08-1.89.21-2.13.25a24.57,24.57,0,0,0-3.43.86c-2.06.63-3.55,1.24-3.92,1.39-1.24.51-2.17,1-2.81,1.28-.28.14-1.06.53-2.08,1.09-.32.18-1.07.59-4,2.35l-2,1.21c-1.68,1-2.94,1.88-3.27,2.1-2.3,1.54-4.75,3.3-6.17,4.17l-.62.38c-1,.6-1.2.76-1.67,1C387.09,320.51,386.77,320.68,386.36,320.88Z"/><path class="cls-8" d="M422.8,304.37a4.12,4.12,0,0,1,1.84,1.7c.68,1.26.36,2.55,0,3.88a10.55,10.55,0,0,1-2.29,4.3c-.36.41-.31.27-2.37,2.06s-1.82,1.65-2.58,2.26a47.19,47.19,0,0,1-4.14,2.81c-1.95,1.26-2.92,1.89-3.46,2.2-1.33.76-1,.49-4.75,2.4a22.45,22.45,0,0,1-3,1.38c-.72.25-.92.27-2.45.69-2.47.69-2.3.75-3.54,1a15.75,15.75,0,0,1-4,.57,7.22,7.22,0,0,1-2.73-.33c-1.41-.52-1.9-1.35-2.25-1.14s-.22,1.86.7,2.92a4.16,4.16,0,0,0,2.18,1.22,20.14,20.14,0,0,0,6.2.71,39.14,39.14,0,0,0,5.58-.64,53.1,53.1,0,0,0,9-2.29,54.22,54.22,0,0,0,8-3.65,52.73,52.73,0,0,0,6.44-4.19,10.69,10.69,0,0,0,3.32-3.42,9.54,9.54,0,0,0,1.14-3.82,11.19,11.19,0,0,0-.57-4.63,9.09,9.09,0,0,0-1.85-3.39A8.89,8.89,0,0,0,422.8,304.37Z"/><path class="cls-9" d="M383.1,430.7S370.85,473.31,370.32,492s-2.67,48.46-1.07,55.92,6.39,22.37,6.39,22.37,10.12-12.25,13.85-5.33c0,0-.53-14.38-3.2-18.64,0,0,1.07-22.37,1.07-30.35s13.31-44.74,14.38-45.27,4.26,10.12,1.6,33.55-4.8,64.45-4.8,68.71,6.39,12.78,10.66,10.12,6.92-25.57,6.92-25.57,3.73-47.93,5.86-53.26,13.31-66.57,4.79-71.37S383.1,430.7,383.1,430.7Z"/><path class="cls-10" d="M392.15,569.17c-.53,2.13-2.66,12.25-2.66,15.45s2.13,9-6.92,11.18c-8.82,2.08-7.53-3.43-8.94-6.67,0-.08-.07-.17-.12-.25-1.59-3.2,2.13-19.71,2.67-19.71.31,0,2.83-4.22,4.85-7.71a5.67,5.67,0,0,1,7.73-2.12,5.41,5.41,0,0,1,1.06.79,8.67,8.67,0,0,1,2.65,6.27A10.71,10.71,0,0,1,392.15,569.17Z"/><path class="cls-11" d="M392.15,569.17c-.53,2.13-2.66,12.25-2.66,15.45s2.13,9-6.92,11.18c-8.82,2.08-7.53-3.43-8.94-6.67,1.53-4,5.24-12.51,7.87-20,2.32-6.58,8-4.43,11-2.77A10.71,10.71,0,0,1,392.15,569.17Z"/><circle class="cls-12" cx="407.6" cy="336.97" r="11.18"/><path class="cls-12" d="M398.54,339.1,397,356.68l19.17,3.19s-2.13-15.44-.53-18.64S398.54,339.1,398.54,339.1Z"/><path class="cls-1" d="M413.46,353s-16-1.6-17,0a9.14,9.14,0,0,0-1.06,4.26s-6.39,2.66-7.46,1.6-2.13-4.26-5.32-3.2S373,375.85,373,375.85s1.6-5.86,4.26,16.51,2.13,36.21,2.66,37.81-2.66,11.19,16.51,11.19,33-1.07,33-4.8-3.19-19.7,0-31.42,8-27.69,8-27.69L431,356.68s-6.39-1.6-8,1.06-5.86,2.13-5.86,2.13S416.65,353.48,413.46,353Z"/><path class="cls-1" d="M383.1,356.68l-13.32-5.86s-25-19.18-24-36.22c0,0-8.52-8-9.05.54s2.13,27.69,8.52,34.08,28.22,26.63,31.42,27.16S383.1,356.68,383.1,356.68Z"/><path class="cls-12" d="M337.83,316.2s-10.12-27.69-1.06-26.63,6.92,12.78,6.92,12.78V316.2Z"/><path class="cls-1" d="M428.9,357.74l13.32-5.86s25-19.17,24-36.21c0,0,8.52-8,9.05.53s-2.13,27.69-8.52,34.09-28.22,26.62-31.42,27.16S428.9,357.74,428.9,357.74Z"/><path class="cls-12" d="M474.17,317.27s10.12-27.7,1.06-26.63-6.92,12.78-6.92,12.78v13.85Z"/><path class="cls-9" d="M416.12,323.66l1.6-1.07s-10.12-5.86-14.38-2.66-5.33,5.86-6.39,6.92-3.73,6.93-2.13,9.06,1.06,2.56,2.13,4.47-1.86,9.61,6.26,11.89,14.51-7.31,15.57-9.44S423.58,326.32,416.12,323.66Z"/><path class="cls-9" d="M825.16,474.19c0,59,37,106.67,82.7,106.67"/><path class="cls-7" d="M907.86,580.86c0-59.62,41.28-107.87,92.29-107.87"/><path class="cls-7" d="M855.13,479.54c0,56,23.58,101.32,52.73,101.32"/><path class="cls-9" d="M907.86,580.86c0-76.18,47.71-137.83,106.67-137.83"/><path class="cls-13" d="M890.46,581.61s11.73-.36,15.27-2.87,18-5.53,18.91-1.49,17.63,20.08,4.39,20.18-30.77-2.06-34.29-4.21S890.46,581.61,890.46,581.61Z"/><path class="cls-14" d="M929.27,596c-13.25.1-30.77-2.07-34.3-4.21-2.69-1.64-3.76-7.51-4.11-10.22h-.4s.75,9.46,4.28,11.61,21,4.32,34.29,4.21c3.82,0,5.14-1.39,5.07-3.4C933.57,595.24,932.11,596,929.27,596Z"/><line class="cls-3" x1="275" y1="596" x2="512" y2="596"/><line class="cls-3" x1="876.89" y1="596.48" x2="950.89" y2="596.48"/></svg>