<svg id="b665ac0c-e2fc-4bb5-9b25-39c3bd142587" xmlns="http://www.w3.org/2000/svg" viewBox="0 0 1061 530.89"><defs><style>.cls-1{fill:#3f3d56;}.cls-2{opacity:0.1;}.cls-2,.cls-6{isolation:isolate;}.cls-3{fill:#2fb4f5;}.cls-4{fill:#2f2e41;}.cls-5{fill:#ffb9b9;}.cls-6{opacity:0.15;}.cls-7{fill:#fff;}</style></defs><title>undraw_online_ad_mg4t</title><path class="cls-1" d="M828.79,99.73H568.62V94.36h-118v5.37H189.41a17.6,17.6,0,0,0-17.6,17.6h0V473.58a17.6,17.6,0,0,0,17.6,17.6H828.79a17.6,17.6,0,0,0,17.6-17.6V117.33a17.6,17.6,0,0,0-17.6-17.6Z" transform="translate(0 0)"/><rect class="cls-2" x="195.41" y="130.83" width="627.39" height="353.91"/><circle class="cls-3" cx="508.57" cy="114.74" r="6.43"/><path class="cls-1" d="M864,478.31H802.78V473.9a.87.87,0,0,0-.88-.88h-21a.87.87,0,0,0-.87.88h0v4.41H766.91V473.9A.87.87,0,0,0,766,473h-21a.87.87,0,0,0-.88.88h0v4.41H731.05V473.9a.87.87,0,0,0-.87-.88h-21a.87.87,0,0,0-.87.88h0v4.41H695.19V473.9a.87.87,0,0,0-.88-.88h-21a.87.87,0,0,0-.87.88h0v4.41H659.33V473.9a.88.88,0,0,0-.88-.88h-21a.88.88,0,0,0-.88.88h0v4.41H623.46V473.9a.87.87,0,0,0-.87-.88h-21a.87.87,0,0,0-.88.88h0v4.41H587.6V473.9a.87.87,0,0,0-.87-.88H422.28a.87.87,0,0,0-.87.88h0v4.41H408.29V473.9a.88.88,0,0,0-.88-.88h-21a.88.88,0,0,0-.88.88h0v4.41H372.42V473.9a.87.87,0,0,0-.87-.88h-21a.87.87,0,0,0-.88.88h0v4.41H336.56V473.9a.87.87,0,0,0-.87-.88h-21a.87.87,0,0,0-.87.88h0v4.41H300.7V473.9a.87.87,0,0,0-.88-.88h-21a.87.87,0,0,0-.87.88h0v4.41H264.83V473.9A.87.87,0,0,0,264,473H243a.87.87,0,0,0-.88.88h0v4.41H229V473.9a.87.87,0,0,0-.87-.88h-21a.87.87,0,0,0-.87.88h0v4.41H166a21,21,0,0,0-21,21v9.49a21,21,0,0,0,21,21H864a21,21,0,0,0,21-21V499.3A21,21,0,0,0,864,478.31Z" transform="translate(0 0)"/><rect class="cls-3" x="382.21" y="171" width="254" height="267"/><path class="cls-4" d="M516.55,159.92s-21.66-7.74-35.58,23.2-35.58,65-35.58,65l12.37,3.09s3.1-21.66,10.83-24.75l-3.09,27.84s92.82,32.49,134.59-3.09l-1.55-10.83s6.19,1.55,6.19,10.83l4.64-4.64s-4.64-9.28-18.56-21.66c-9.14-8.12-12.28-23.58-13.36-33.24a40.24,40.24,0,0,0-9.26-21.9C558.94,159,542.08,147.63,516.55,159.92Z" transform="translate(0 0)"/><path class="cls-5" d="M396.87,189.11l-9-94s-18-51,9-47,11,43,11,43l15,98Z" transform="translate(0 0)"/><circle class="cls-5" cx="527.87" cy="223.11" r="36"/><path class="cls-5" d="M501.87,239.11s-2,41-12,44-38,36-25,46,88,3,88,3l-7-52s-16-11-3-30Z" transform="translate(0 0)"/><path class="cls-1" d="M576.94,440H435.54c.51-9.05,1.79-21.83,3.43-35.88.5-4.26,1-8.65,1.58-13.08,4.85-39.05,11.32-81.93,11.32-81.93l1.7-3.93,17.3-40.07.18.07,22.82,8.93.81,3.84,6.19,29.16,40-32.33,37-5.78,2.5-.39,4.5,42.5s-.2,9.5-.41,23c-.24,15.55-.5,36.43-.48,54.32,0,8.55.08,16.42.25,22.7.14,5.29.35,9.46.64,11.95C585.54,428.78,582,434.67,576.94,440Z" transform="translate(0 0)"/><polygon class="cls-1" points="471.87 270.11 470.87 264.11 442.87 230.11 426.87 173.11 387.87 188.11 415.87 257.11 455.87 308.11 471.87 270.11"/><path class="cls-4" d="M480.58,227.41s12.37-17,23.2-20.11,12.38-18.56,12.38-18.56S544,219.68,561,221.22s1.55-37.12,1.55-37.12l-30.94-7.74-29.39,3.09L479,194.92Z" transform="translate(0 0)"/><path class="cls-5" d="M580.21,406l-95.67,3.79s-52.72,12.07-45.67-14.3,44-6,44-6l99.07-3.73Z" transform="translate(0 0)"/><path class="cls-1" d="M569.37,275.61l9-7s15-8,18,20,25,121,3,122-78,2-78,2l6-31,46-3Z" transform="translate(0 0)"/><polygon class="cls-6" points="572.37 318.61 569.37 375.61 525.37 384.61 565.37 368.61 572.37 318.61"/><rect class="cls-3" x="277.22" width="244" height="64"/><rect class="cls-1" y="528.89" width="1061" height="2"/><path class="cls-3" d="M958,459c14.37,15.43,15.12,38.1,15.12,38.1s-22.57-2.34-36.94-17.77S921,441.26,921,441.26,943.58,443.6,958,459Z" transform="translate(0 0)"/><path class="cls-3" d="M1003.21,483.11c-15.42,14.37-38.1,15.12-38.1,15.12s2.34-22.57,17.77-36.94,38.1-15.12,38.1-15.12S1018.64,468.73,1003.21,483.11Z" transform="translate(0 0)"/><path class="cls-1" d="M999.38,528.89H942.64a5.8,5.8,0,0,1-5.22-3.26l-12.35-25.4a5.8,5.8,0,0,1,2.68-7.75,5.74,5.74,0,0,1,2.54-.59h81.44a5.81,5.81,0,0,1,5.81,5.81,5.7,5.7,0,0,1-.59,2.53l-12.35,25.4A5.8,5.8,0,0,1,999.38,528.89Z" transform="translate(0 0)"/><path class="cls-3" d="M61,459c14.37,15.43,15.12,38.1,15.12,38.1s-22.57-2.34-36.94-17.77S24,441.26,24,441.26,46.58,443.6,61,459Z" transform="translate(0 0)"/><path class="cls-1" d="M93.38,528.89H36.64a5.8,5.8,0,0,1-5.22-3.26l-12.35-25.4a5.8,5.8,0,0,1,2.68-7.75,5.74,5.74,0,0,1,2.54-.59h81.44a5.81,5.81,0,0,1,5.81,5.81,5.7,5.7,0,0,1-.59,2.53L98.6,525.63A5.8,5.8,0,0,1,93.38,528.89Z" transform="translate(0 0)"/><path class="cls-7" d="M305.37,17.19h4.77V42.52h-4.77Zm2.17,10.91h8.1a2.79,2.79,0,0,0,1.51-.4,2.65,2.65,0,0,0,1-1.1,3.6,3.6,0,0,0,.37-1.64,3.65,3.65,0,0,0-.36-1.66,2.68,2.68,0,0,0-1-1.12,3,3,0,0,0-1.53-.39h-8.1v-4.6h8a8.62,8.62,0,0,1,4.17,1,6.8,6.8,0,0,1,2.8,2.72,8.22,8.22,0,0,1,1,4.08,8.15,8.15,0,0,1-1,4.07,6.84,6.84,0,0,1-2.8,2.71,8.73,8.73,0,0,1-4.17.95h-8Z" transform="translate(0 0)"/><path class="cls-7" d="M327.23,17.17H332V42.52h-4.77Zm1.9,10.56h8.81a2.25,2.25,0,0,0,1.29-.37,2.34,2.34,0,0,0,.86-1,4,4,0,0,0,.32-1.57,3.89,3.89,0,0,0-.3-1.57,2.34,2.34,0,0,0-.86-1,2.29,2.29,0,0,0-1.31-.37h-8.81v-4.6h9.19a7.14,7.14,0,0,1,3.68.94,6.39,6.39,0,0,1,2.46,2.66,8.67,8.67,0,0,1,.87,4,8.67,8.67,0,0,1-.87,4A6.36,6.36,0,0,1,342,31.39a7.13,7.13,0,0,1-3.67.94h-9.19Zm5.33,3.81,5.1-.8,6.83,11.78h-5.78Z" transform="translate(0 0)"/><path class="cls-7" d="M353.66,41.62a8.06,8.06,0,0,1-3.25-3.27,10.2,10.2,0,0,1-1.15-4.91V26.27a10.2,10.2,0,0,1,1.15-4.91,8.06,8.06,0,0,1,3.25-3.27,10.72,10.72,0,0,1,9.7,0,8,8,0,0,1,3.25,3.27,10.09,10.09,0,0,1,1.15,4.91v7.17a10.09,10.09,0,0,1-1.15,4.91,8,8,0,0,1-3.25,3.27,10.72,10.72,0,0,1-9.7,0Zm7.12-4.16a3.76,3.76,0,0,0,1.5-1.56,4.85,4.85,0,0,0,.53-2.33V26.14a4.85,4.85,0,0,0-.53-2.33,3.76,3.76,0,0,0-1.5-1.56,4.94,4.94,0,0,0-4.53,0,3.85,3.85,0,0,0-1.51,1.56,5,5,0,0,0-.53,2.33v7.43a5,5,0,0,0,.53,2.33,3.85,3.85,0,0,0,1.51,1.56,4.94,4.94,0,0,0,4.53,0Z" transform="translate(0 0)"/><path class="cls-7" d="M388.4,17.19h6.29V42.52h-4.34V22.85l.18,1.12L385.69,39.7h-4.22l-4.84-15.38.17-1.47V42.52h-4.33V17.19h6.28l4.83,17.07Z" transform="translate(0 0)"/><path class="cls-7" d="M404.14,41.62a8.06,8.06,0,0,1-3.25-3.27,10.2,10.2,0,0,1-1.15-4.91V26.27a10.2,10.2,0,0,1,1.15-4.91,8.06,8.06,0,0,1,3.25-3.27,10.72,10.72,0,0,1,9.7,0,8,8,0,0,1,3.25,3.27,10.09,10.09,0,0,1,1.15,4.91v7.17a10.09,10.09,0,0,1-1.15,4.91,8,8,0,0,1-3.25,3.27,10.72,10.72,0,0,1-9.7,0Zm7.12-4.16a3.76,3.76,0,0,0,1.5-1.56,4.86,4.86,0,0,0,.54-2.33V26.14a4.86,4.86,0,0,0-.54-2.33,3.76,3.76,0,0,0-1.5-1.56,4.94,4.94,0,0,0-4.53,0,3.85,3.85,0,0,0-1.51,1.56,5,5,0,0,0-.53,2.33v7.43a5,5,0,0,0,.53,2.33,3.85,3.85,0,0,0,1.51,1.56,4.94,4.94,0,0,0,4.53,0Z" transform="translate(0 0)"/><path class="cls-7" d="M419.81,17.19h18.57v4.6H419.81Zm6.9,2.07h4.77V42.52h-4.77Z" transform="translate(0 0)"/><path class="cls-7" d="M445.77,42.52h-4.95V17.19h4.95Z" transform="translate(0 0)"/><path class="cls-7" d="M454.87,41.62a8,8,0,0,1-3.25-3.27,10.09,10.09,0,0,1-1.15-4.91V26.27a10.09,10.09,0,0,1,1.15-4.91,8,8,0,0,1,3.25-3.27,10.72,10.72,0,0,1,9.7,0,8.06,8.06,0,0,1,3.25,3.27A10.2,10.2,0,0,1,469,26.27v7.17a10.2,10.2,0,0,1-1.15,4.91,8.06,8.06,0,0,1-3.25,3.27,10.72,10.72,0,0,1-9.7,0ZM462,37.46a3.78,3.78,0,0,0,1.51-1.56,5,5,0,0,0,.53-2.33V26.14a5,5,0,0,0-.53-2.33A3.78,3.78,0,0,0,462,22.25a4.94,4.94,0,0,0-4.53,0,3.76,3.76,0,0,0-1.5,1.56,4.85,4.85,0,0,0-.53,2.33v7.43A4.85,4.85,0,0,0,456,35.9a3.76,3.76,0,0,0,1.5,1.56,4.94,4.94,0,0,0,4.53,0Z" transform="translate(0 0)"/><path class="cls-7" d="M473.67,17.19h5.84l9.42,19.41-.42.45V17.19h4.57V42.5h-5.87l-9.39-19.11.41-.45V42.5h-4.56Z" transform="translate(0 0)"/></svg>